<?xml version="1.0" standalone="no"?>
<!DOCTYPE svg PUBLIC "-//W3C//DTD SVG 20010904//EN"
 "http://www.w3.org/TR/2001/REC-SVG-20010904/DTD/svg10.dtd">
<svg version="1.0" xmlns="http://www.w3.org/2000/svg"
 width="1536.000000pt" height="1024.000000pt" viewBox="0 0 1536.000000 1024.000000"
 preserveAspectRatio="xMidYMid meet">

<g transform="translate(0.000000,1024.000000) scale(0.100000,-0.100000)"
fill="#FF3D00" stroke="none">
<path d="M7426 8090 c-698 -81 -1295 -465 -1608 -1035 -166 -303 -237 -615
-225 -985 9 -254 30 -381 104 -609 82 -254 247 -549 438 -786 304 -377 1339
-1461 1441 -1510 22 -10 62 -20 90 -23 98 -8 118 7 456 346 727 730 1044 1084
1257 1403 367 549 479 1147 326 1747 -145 576 -600 1075 -1190 1307 -137 54
-344 109 -490 131 -123 17 -491 26 -599 14z m599 -25 c394 -58 754 -217 1046
-462 219 -185 363 -366 483 -608 86 -171 122 -275 162 -460 26 -122 28 -145
28 -380 1 -218 -2 -265 -21 -365 -92 -477 -317 -886 -753 -1370 -151 -168
-667 -708 -919 -964 -252 -254 -291 -285 -361 -286 -86 0 -106 13 -299 204
-402 397 -1028 1068 -1219 1305 -273 339 -450 695 -521 1046 -37 184 -44 269
-38 489 4 175 9 231 30 327 81 371 248 678 514 945 322 322 754 527 1243 590
130 17 480 11 625 -11z"/>
<path d="M7390 7866 c-444 -68 -857 -287 -1130 -598 -208 -238 -334 -487 -400
-794 -31 -143 -39 -438 -16 -589 71 -457 280 -843 730 -1345 164 -182 667
-712 895 -942 142 -143 192 -188 211 -188 28 0 180 151 661 655 451 473 560
595 718 805 115 153 190 275 273 446 79 164 128 306 165 483 24 113 27 148 27
336 1 181 -2 226 -22 323 -70 348 -215 616 -472 872 -242 242 -465 375 -791
474 -192 58 -268 68 -529 72 -159 2 -263 -1 -320 -10z m690 -474 c22 -12 44
-35 58 -62 22 -44 22 -49 22 -456 l0 -411 41 -7 c111 -18 205 -104 241 -221 5
-16 15 -166 22 -331 14 -341 17 -354 95 -409 88 -62 213 -30 260 67 28 59 27
93 -13 276 -30 135 -48 243 -72 429 -4 37 -8 42 -37 48 -53 12 -145 65 -172
101 -54 70 -69 121 -69 229 -1 117 23 184 81 235 l34 31 -30 38 c-16 20 -78
82 -136 136 -116 107 -126 129 -74 168 l27 19 48 -23 c62 -30 344 -309 401
-396 67 -102 88 -243 68 -473 -8 -107 12 -261 66 -499 51 -224 52 -301 9 -389
-36 -71 -82 -115 -160 -151 -45 -21 -69 -26 -135 -26 -133 1 -238 63 -292 173
-27 55 -28 63 -35 287 -15 421 -27 468 -140 538 l-28 17 0 -525 0 -525 -645 0
-645 0 0 1003 0 1004 23 44 c43 82 20 79 622 79 494 0 533 -1 565 -18z m281
-2238 c8 -10 15 -48 17 -88 3 -60 1 -75 -16 -96 l-20 -25 -825 0 c-958 0 -867
-12 -867 109 0 49 5 79 16 94 l15 22 833 0 c760 0 835 -1 847 -16z"/>
<path d="M7124 7240 c-12 -4 -31 -21 -43 -36 -20 -26 -21 -36 -21 -283 0 -238
1 -258 20 -289 11 -18 32 -37 46 -42 33 -13 764 -13 798 0 55 20 57 35 56 320
0 290 -4 309 -61 329 -38 13 -763 14 -795 1z"/>
<path d="M8615 6765 c-52 -67 -44 -202 16 -269 29 -33 106 -73 118 -61 11 12
5 219 -8 265 -29 102 -79 128 -126 65z"/>
</g>
</svg>
