<svg width="800" height="950" viewBox="0 0 800 950" fill="none" xmlns="http://www.w3.org/2000/svg">
<circle cx="400.5" cy="428.5" r="161.5" fill="white"/>
<path d="M400.025 217C284.039 217 190 311.028 190 426.962C190 542.999 400.025 883.672 400.025 883.672C400.025 883.672 610.059 542.999 610.059 426.962C610.059 311.028 516.062 217 400.025 217ZM400.035 589.44C310.63 589.44 237.881 516.69 237.881 427.285C237.881 337.859 310.641 265.131 400.035 265.131C489.44 265.131 562.19 337.859 562.19 427.285C562.19 516.69 489.44 589.44 400.035 589.44Z" fill="#FFA6F6" stroke="white" stroke-width="6.66672"/>
<path d="M464.748 347.752L486.194 369.647V482.877C486.194 484.724 485.818 486.049 485.026 486.832C483.21 488.617 478.701 488.502 476.364 488.481C471.323 488.481 467.525 487.48 465.73 485.695C464.581 484.484 464.519 483.264 464.581 482.877V372.83H445.609V318.688H340.069V513.527H317.089V540.599H468.64V513.527H445.609V383.642H453.717V482.419C453.675 483.003 453.424 488.242 457.631 492.865C461.606 497.134 467.848 499.304 476.238 499.304L477.855 499.325C481.852 499.325 488.197 498.846 492.601 494.536C495.533 491.655 497.016 487.742 497.016 482.858V365.201L472.46 340.155L464.748 347.752ZM432.042 394.474H356.287V340.353H432.042V394.474Z" fill="#FFA6F6" stroke="white" stroke-width="6.66672"/>
<path d="M198.279 229.129L199.028 231.434H263.842L213.367 268.105L211.406 269.529L212.155 271.834L231.434 331.17L180.96 294.498L179 293.074L177.04 294.498L126.565 331.17L145.845 271.834L146.594 269.529L144.633 268.105L94.1582 231.434H158.972L159.721 229.129L179 169.792L198.279 229.129Z" fill="#FFA6F6" stroke="white" stroke-width="6.67"/>
<path d="M430.505 104.678L431.254 106.982H532.395L452.53 165.007L450.57 166.432L451.319 168.735L481.824 262.621L401.96 204.597L400 203.173L398.04 204.597L318.175 262.621L348.681 168.735L349.43 166.432L347.47 165.007L267.605 106.982H368.746L369.495 104.678L400 10.792L430.505 104.678Z" fill="#FFA6F6" stroke="white" stroke-width="6.67"/>
<path d="M629.279 229.129L630.028 231.434H694.842L644.367 268.105L642.406 269.529L643.155 271.834L662.434 331.17L611.96 294.498L610 293.074L608.04 294.498L557.565 331.17L576.845 271.834L577.594 269.529L575.633 268.105L525.158 231.434H589.972L590.721 229.129L610 169.792L629.279 229.129Z" fill="#FFA6F6" stroke="white" stroke-width="6.67"/>
</svg>
