<svg width="800" height="800" viewBox="0 0 800 800" fill="none" xmlns="http://www.w3.org/2000/svg">
<circle cx="400.5" cy="278.5" r="161.5" fill="white"/>
<path d="M399.994 66.6631C284.008 66.6631 189.969 160.691 189.969 276.625C189.969 392.662 399.994 733.335 399.994 733.335C399.994 733.335 610.028 392.662 610.028 276.625C610.028 160.691 516.031 66.6631 399.994 66.6631ZM400.004 439.103C310.599 439.103 237.85 366.353 237.85 276.948C237.85 187.522 310.61 114.794 400.004 114.794C489.409 114.794 562.159 187.522 562.159 276.948C562.159 366.353 489.409 439.103 400.004 439.103Z" fill="#FF5900" stroke="white" stroke-width="6.66672"/>
<path d="M464.717 197.415L486.163 219.31V332.54C486.163 334.387 485.787 335.712 484.995 336.495C483.179 338.28 478.67 338.165 476.333 338.145C471.292 338.145 467.494 337.143 465.699 335.358C464.55 334.148 464.488 332.927 464.55 332.54V222.493H445.578V168.351H340.038V363.191H317.058V390.262H468.609V363.191H445.578V233.305H453.686V332.082C453.645 332.666 453.394 337.905 457.6 342.528C461.576 346.797 467.817 348.967 476.207 348.967L477.824 348.988C481.821 348.988 488.166 348.509 492.57 344.199C495.502 341.318 496.985 337.405 496.985 332.521V214.864L472.429 189.818L464.717 197.415ZM432.011 244.137H356.256V190.016H432.011V244.137Z" fill="#FF5900" stroke="white" stroke-width="6.66672"/>
</svg>
