<svg width="800" height="800" viewBox="0 0 800 800" fill="none" xmlns="http://www.w3.org/2000/svg">
<circle cx="400.5" cy="278.5" r="161.5" fill="white"/>
<path d="M400.025 67C284.039 67 190 161.028 190 276.962C190 392.999 400.025 733.672 400.025 733.672C400.025 733.672 610.059 392.999 610.059 276.962C610.059 161.028 516.062 67 400.025 67ZM400.035 439.44C310.63 439.44 237.881 366.69 237.881 277.285C237.881 187.859 310.641 115.131 400.035 115.131C489.44 115.131 562.19 187.859 562.19 277.285C562.19 366.69 489.44 439.44 400.035 439.44Z" fill="#48D251" stroke="white" stroke-width="6.66672"/>
<path d="M464.748 197.752L486.194 219.647V332.877C486.194 334.724 485.818 336.049 485.026 336.832C483.21 338.617 478.701 338.502 476.364 338.481C471.323 338.481 467.525 337.48 465.73 335.695C464.581 334.484 464.519 333.264 464.581 332.877V222.83H445.609V168.688H340.069V363.527H317.089V390.599H468.64V363.527H445.609V233.642H453.717V332.419C453.675 333.003 453.424 338.242 457.631 342.865C461.606 347.134 467.848 349.304 476.238 349.304L477.855 349.325C481.852 349.325 488.197 348.846 492.601 344.536C495.533 341.655 497.016 337.742 497.016 332.858V215.201L472.46 190.155L464.748 197.752ZM432.042 244.474H356.287V190.353H432.042V244.474Z" fill="#48D251" stroke="white" stroke-width="6.66672"/>
<mask id="path-4-outside-1_0_1" maskUnits="userSpaceOnUse" x="504" y="1" width="125" height="104" fill="black">
<rect fill="white" x="504" y="1" width="125" height="104"/>
<path d="M534.091 83.6364V23.6364H544.273V83.6364H534.091ZM509.182 58.7273V48.5455H569.182V58.7273H509.182ZM623.739 6.90909V100H612.466V18.7273H611.92L589.193 33.8182V22.3636L612.466 6.90909H623.739Z"/>
</mask>
<path d="M534.091 83.6364V23.6364H544.273V83.6364H534.091ZM509.182 58.7273V48.5455H569.182V58.7273H509.182ZM623.739 6.90909V100H612.466V18.7273H611.92L589.193 33.8182V22.3636L612.466 6.90909H623.739Z" fill="#48D251"/>
<path d="M534.091 83.6364H529.091V88.6364H534.091V83.6364ZM534.091 23.6364V18.6364H529.091V23.6364H534.091ZM544.273 23.6364H549.273V18.6364H544.273V23.6364ZM544.273 83.6364V88.6364H549.273V83.6364H544.273ZM509.182 58.7273H504.182V63.7273H509.182V58.7273ZM509.182 48.5455V43.5455H504.182V48.5455H509.182ZM569.182 48.5455H574.182V43.5455H569.182V48.5455ZM569.182 58.7273V63.7273H574.182V58.7273H569.182ZM534.091 83.6364H539.091V23.6364H534.091H529.091V83.6364H534.091ZM534.091 23.6364V28.6364H544.273V23.6364V18.6364H534.091V23.6364ZM544.273 23.6364H539.273V83.6364H544.273H549.273V23.6364H544.273ZM544.273 83.6364V78.6364H534.091V83.6364V88.6364H544.273V83.6364ZM509.182 58.7273H514.182V48.5455H509.182H504.182V58.7273H509.182ZM509.182 48.5455V53.5455H569.182V48.5455V43.5455H509.182V48.5455ZM569.182 48.5455H564.182V58.7273H569.182H574.182V48.5455H569.182ZM569.182 58.7273V53.7273H509.182V58.7273V63.7273H569.182V58.7273ZM623.739 6.90909H628.739V1.90909H623.739V6.90909ZM623.739 100V105H628.739V100H623.739ZM612.466 100H607.466V105H612.466V100ZM612.466 18.7273H617.466V13.7273H612.466V18.7273ZM611.92 18.7273V13.7273H610.412L609.155 14.5619L611.92 18.7273ZM589.193 33.8182H584.193V43.14L591.959 37.9835L589.193 33.8182ZM589.193 22.3636L586.427 18.1984L584.193 19.6819V22.3636H589.193ZM612.466 6.90909V1.90909H610.957L609.7 2.74384L612.466 6.90909ZM623.739 6.90909H618.739V100H623.739H628.739V6.90909H623.739ZM623.739 100V95H612.466V100V105H623.739V100ZM612.466 100H617.466V18.7273H612.466H607.466V100H612.466ZM612.466 18.7273V13.7273H611.92V18.7273V23.7273H612.466V18.7273ZM611.92 18.7273L609.155 14.5619L586.427 29.6528L589.193 33.8182L591.959 37.9835L614.686 22.8926L611.92 18.7273ZM589.193 33.8182H594.193V22.3636H589.193H584.193V33.8182H589.193ZM589.193 22.3636L591.959 26.5289L615.232 11.0743L612.466 6.90909L609.7 2.74384L586.427 18.1984L589.193 22.3636ZM612.466 6.90909V11.9091H623.739V6.90909V1.90909H612.466V6.90909Z" fill="white" mask="url(#path-4-outside-1_0_1)"/>
</svg>
