<svg id="svg" xmlns="http://www.w3.org/2000/svg" xmlns:xlink="http://www.w3.org/1999/xlink" width="400" height="399.60899315738027" viewBox="0, 0, 400,399.60899315738027" version="1.1"><g id="svgg"><path id="path0" d="M385.533 107.918 C 385.533 108.133,385.786 108.309,386.096 108.309 C 386.406 108.309,386.768 108.133,386.901 107.918 C 387.034 107.703,386.781 107.527,386.338 107.527 C 385.895 107.527,385.533 107.703,385.533 107.918 M225.536 122.722 C 215.158 125.429,211.549 137.035,217.795 147.615 C 221.066 153.155,239.128 168.915,242.207 168.915 C 245.295 168.915,262.392 153.395,265.867 147.438 C 270.104 140.175,269.643 131.886,264.703 126.527 C 259.562 120.949,250.629 120.939,243.798 126.503 L 241.616 128.281 239.381 126.355 C 234.834 122.438,230.742 121.364,225.536 122.722 M233.984 127.811 C 235.041 128.375,237.178 130.024,238.733 131.476 C 242.168 134.684,241.559 134.712,245.190 131.179 C 248.704 127.760,250.940 126.609,254.109 126.590 C 262.058 126.542,266.680 135.257,262.869 143.109 C 260.289 148.422,245.061 163.441,242.252 163.441 C 239.347 163.441,223.393 148.389,220.873 143.270 C 215.807 132.980,224.486 122.747,233.984 127.811 M193.548 141.024 C 149.006 148.076,131.121 193.002,158.874 228.123 C 164.130 234.773,197.774 268.228,199.220 268.241 C 200.522 268.253,230.118 238.931,237.708 230.108 C 252.401 213.030,256.394 195.308,250.010 175.508 C 248.321 170.268,248.175 170.141,245.787 171.839 C 241.824 174.657,240.276 173.994,229.326 164.784 C 219.468 156.493,214.043 149.916,211.931 143.695 L 211.267 141.740 208.371 141.276 C 205.673 140.843,195.753 140.675,193.548 141.024 M208.483 159.529 C 209.062 159.530,210.030 159.955,210.633 160.474 L 211.730 161.417 211.926 173.834 L 212.121 186.250 213.832 186.820 C 218.585 188.404,219.759 191.329,220.087 202.414 C 220.363 211.724,220.523 212.206,223.651 213.144 C 228.674 214.649,230.438 210.329,228.540 201.173 C 228.005 198.592,227.453 194.610,227.314 192.323 L 227.061 188.165 225.308 187.925 C 219.093 187.073,217.323 178.924,222.519 175.083 C 224.065 173.939,224.089 173.996,220.332 169.904 C 216.957 166.226,216.562 165.471,217.577 164.629 C 218.541 163.829,219.546 164.505,223.472 168.596 C 230.283 175.692,230.617 176.601,230.843 188.661 C 230.972 195.570,231.170 198.033,231.849 201.173 C 233.414 208.406,233.061 211.142,230.167 214.190 C 226.747 217.793,220.377 216.779,217.762 212.214 C 216.861 210.640,216.803 210.137,216.605 202.151 C 216.380 193.041,216.219 192.315,213.978 190.236 C 212.157 188.548,212.133 188.699,211.926 203.160 L 211.730 216.813 194.171 216.892 C 183.101 216.941,176.342 216.826,175.883 216.580 C 175.183 216.205,175.159 215.177,175.261 189.059 L 175.367 161.928 176.496 160.749 C 177.940 159.242,176.950 159.319,193.353 159.431 C 201.095 159.484,207.903 159.528,208.483 159.529 M181.826 163.921 C 180.083 164.842,179.875 165.860,179.869 173.491 C 179.860 184.171,178.812 183.457,194.293 183.302 L 205.740 183.187 206.487 182.264 C 207.772 180.675,207.611 166.269,206.290 164.733 L 205.347 163.636 194.071 163.523 C 185.350 163.435,182.576 163.525,181.826 163.921 M224.576 177.699 C 221.495 179.857,222.223 184.245,225.758 184.819 L 227.175 185.049 227.175 182.319 C 227.175 177.841,226.383 176.433,224.576 177.699 M216.677 220.168 C 218.665 221.232,218.919 224.974,217.100 226.405 C 216.152 227.151,215.413 227.175,193.713 227.175 L 171.305 227.175 170.208 226.231 C 169.297 225.448,169.110 224.978,169.110 223.460 C 169.110 221.943,169.297 221.473,170.208 220.690 L 171.305 219.746 193.596 219.746 C 208.816 219.746,216.138 219.880,216.677 220.168 M70.163 352.126 C 70.580 352.435,71.099 352.688,71.316 352.688 C 71.951 352.688,70.854 351.768,70.092 351.661 C 69.481 351.576,69.489 351.628,70.163 352.126 M360.508 351.897 C 360.508 352.067,360.943 352.289,361.474 352.391 C 362.005 352.492,362.360 352.446,362.262 352.288 C 362.002 351.867,360.508 351.535,360.508 351.897 M366.764 351.915 C 366.764 352.075,367.204 352.290,367.742 352.393 C 368.280 352.496,368.719 352.449,368.719 352.289 C 368.719 352.128,368.280 351.913,367.742 351.810 C 367.204 351.708,366.764 351.755,366.764 351.915 M71.314 361.199 C 71.049 361.373,71.000 361.792,71.189 362.268 C 71.360 362.698,71.525 362.874,71.557 362.659 C 71.588 362.444,71.673 361.960,71.745 361.584 C 71.894 360.806,71.901 360.812,71.314 361.199 M138.416 362.427 C 137.461 362.697,137.459 362.708,138.293 362.931 C 138.833 363.075,139.225 362.959,139.356 362.616 C 139.471 362.317,139.526 362.090,139.479 362.111 C 139.432 362.133,138.954 362.275,138.416 362.427 M141.153 362.505 C 141.153 363.011,142.263 363.194,142.445 362.718 C 142.550 362.445,142.312 362.240,141.891 362.240 C 141.485 362.240,141.153 362.359,141.153 362.505 M366.969 362.456 C 366.214 362.725,366.216 362.743,367.041 363.184 C 368.166 363.786,368.589 363.754,368.589 363.067 C 368.589 362.342,367.957 362.104,366.969 362.456 M379.390 362.385 C 379.043 362.606,379.099 362.799,379.599 363.112 C 380.158 363.461,380.282 363.405,380.282 362.805 C 380.282 362.007,380.112 361.926,379.390 362.385 " stroke="none" fill="#d58de3" fill-rule="evenodd"></path></g></svg>