<svg width="800" height="800" viewBox="0 0 800 800" fill="none" xmlns="http://www.w3.org/2000/svg">
<path d="M400.5 440C489.694 440 562 367.694 562 278.5C562 189.306 489.694 117 400.5 117C311.306 117 239 189.306 239 278.5C239 367.694 311.306 440 400.5 440Z" fill="white"/>
<path d="M399.994 66.6631C284.008 66.6631 189.969 160.691 189.969 276.625C189.969 392.662 399.994 733.335 399.994 733.335C399.994 733.335 610.028 392.662 610.028 276.625C610.028 160.691 516.031 66.6631 399.994 66.6631ZM400.004 439.103C310.599 439.103 237.85 366.353 237.85 276.948C237.85 187.522 310.61 114.794 400.004 114.794C489.409 114.794 562.159 187.522 562.159 276.948C562.159 366.353 489.409 439.103 400.004 439.103Z" fill="#FFA6F6" stroke="white" stroke-width="6.66672"/>
<path d="M464.717 197.415L486.163 219.31V332.54C486.163 334.387 485.787 335.712 484.995 336.495C483.179 338.28 478.67 338.165 476.333 338.145C471.292 338.145 467.494 337.143 465.699 335.358C464.55 334.148 464.488 332.927 464.55 332.54V222.493H445.578V168.351H340.038V363.191H317.058V390.262H468.609V363.191H445.578V233.305H453.686V332.082C453.645 332.666 453.394 337.905 457.6 342.528C461.576 346.797 467.817 348.967 476.207 348.967L477.824 348.988C481.821 348.988 488.166 348.509 492.57 344.199C495.502 341.318 496.985 337.405 496.985 332.521V214.864L472.429 189.818L464.717 197.415ZM432.011 244.137H356.256V190.016H432.011V244.137Z" fill="#FFA6F6" stroke="white" stroke-width="6.66672"/>
<path d="M643.651 20.335C659.531 20.335 671.609 25.4241 680.319 35.3457C689.078 45.3229 693.665 59.3764 693.665 77.9375C693.665 96.0708 685.625 114.855 668.925 134.344L599.42 212.439L599.398 212.462L599.379 212.486C598.627 213.363 597.892 213.665 597 213.665C596.108 213.665 595.373 213.363 594.621 212.486L594.603 212.463L594.582 212.441L524.939 134.056L524.836 133.939L524.722 133.833L524.487 133.606C523.902 133.028 523.062 132.097 521.939 130.75C520.748 129.321 518.762 126.596 515.934 122.471C513.184 118.46 510.726 114.348 508.56 110.136C506.454 106.042 504.537 101.008 502.831 94.9961C501.158 89.0993 500.335 83.4162 500.335 77.9375C500.335 59.3764 504.922 45.3229 513.681 35.3457C522.391 25.4241 534.469 20.335 550.349 20.335C554.503 20.335 558.8 21.1735 563.258 22.9072C567.759 24.6578 571.947 27.0189 575.829 29.9971C579.896 33.1171 583.362 36.0212 586.242 38.709C589.127 41.4013 591.869 44.2629 594.468 47.2949L597 50.25L599.532 47.2949C602.131 44.2629 604.873 41.4013 607.758 38.709C610.638 36.0212 614.104 33.1171 618.171 29.9971C622.053 27.0189 626.241 24.6578 630.742 22.9072C635.2 21.1735 639.497 20.335 643.651 20.335Z" fill="#FFA6F6" stroke="white" stroke-width="6.67"/>
</svg>
